<svg width="45" xmlns="http://www.w3.org/2000/svg" fill="#F2A60F" xmlns:xlink="http://www.w3.org/1999/xlink" zoomAndPan="magnify" viewBox="0 0 810 809.999993" preserveAspectRatio="xMidYMid meet" version="1.0">
  <defs>
    <clipPath id="98f95d7995">
      <path d="M 306 730 L 465 730 L 465 796.550781 L 306 796.550781 Z M 306 730 " clip-rule="nonzero"></path>
    </clipPath>
  </defs>
  <path d="M 233.390625 489.753906 C 189.785156 447.949219 167.980469 394.601562 167.980469 329.628906 C 167.980469 267.816406 189.015625 215.839844 231.082031 173.691406 C 273.152344 131.117188 324.796875 109.828125 385.847656 109.828125 C 447.238281 109.828125 498.714844 131.117188 540.269531 173.691406 C 582.082031 216.007812 603.027344 268.5 603.027344 331.167969 C 603.027344 393.0625 581.824219 445.472656 539.5 488.644531 C 538.730469 489.414062 538.046875 490.097656 537.277344 490.867188 C 526.332031 501.554688 524.449219 518.394531 533.085938 531.046875 L 545.828125 549.769531 C 556.429688 565.332031 578.402344 568.324219 592.339844 555.671875 C 595.503906 552.761719 598.667969 549.855469 601.832031 546.777344 C 662.199219 487.960938 692.382812 416.316406 692.382812 331.9375 C 692.382812 248.070312 662.371094 176.171875 602.257812 116.324219 C 542.40625 56.480469 470.667969 26.558594 386.957031 26.558594 C 302.308594 26.558594 229.714844 56.226562 169.433594 115.554688 C 108.8125 174.886719 78.542969 245.847656 78.542969 328.515625 C 78.542969 422.558594 111.71875 498.648438 178.15625 556.695312 C 178.242188 556.78125 178.324219 556.867188 178.410156 556.953125 C 192.433594 569.09375 214.066406 565.929688 224.5 550.625 L 238.09375 530.707031 C 246.816406 517.882812 244.679688 500.871094 233.5625 490.097656 C 233.5625 489.925781 233.476562 489.839844 233.390625 489.753906 Z M 233.390625 489.753906 " fill-opacity="1" fill-rule="nonzero"></path>
  <path d="M 479.816406 690.492188 L 291.191406 690.492188 C 266.054688 690.492188 245.789062 670.144531 245.789062 645.09375 C 245.789062 619.960938 266.140625 599.699219 291.191406 599.699219 L 479.816406 599.699219 C 504.953125 599.699219 525.21875 620.046875 525.21875 645.09375 C 525.304688 670.144531 504.953125 690.492188 479.816406 690.492188 Z M 479.816406 690.492188 " fill-opacity="1" fill-rule="nonzero"></path>
  <g clip-path="url(#98f95d7995)">
    <path d="M 419.109375 821.378906 L 351.902344 821.378906 C 326.761719 821.378906 306.5 801.03125 306.5 775.984375 C 306.5 750.847656 326.847656 730.585938 351.902344 730.585938 L 419.109375 730.585938 C 444.246094 730.585938 464.511719 750.933594 464.511719 775.984375 C 464.511719 801.03125 444.160156 821.378906 419.109375 821.378906 Z M 419.109375 821.378906 " fill-opacity="1" fill-rule="nonzero"></path>
  </g>
</svg>
